# xmcd
#
# Track frame offsets:
#	150
#	33665
#	65288
#	113805
#	141836
#	159429
#	191379
#	218706
#	251924
#	305463
#
# Disc length: 4506 seconds
#
# Revision: 2
# Processed by: cddbd v1.5.2PL0 Copyright (c) Steve Scherf et al.
# Submitted via: dBpowerAMP V4.0
#
DISCID=8b11980a
DTITLE=Chick Corea and Gary Burton - Hot House
DYEAR=2012
DGENRE=Piano Jazz
TTITLE0=Can't We Be Friends
TTITLE1=Eleanor Rigby
TTITLE2=Chega de Saudade
TTITLE3=Time Remembered
TTITLE4=Hot House
TTITLE5=Strange Meadow Lark
TTITLE6=Light Blue
TTITLE7=Once I Loved
TTITLE8=My Ship
TTITLE9=Mozart Goes Dancing
EXTD=
EXTT0=
EXTT1=
EXTT2=
EXTT3=
EXTT4=
EXTT5=
EXTT6=
EXTT7=
EXTT8=
EXTT9=
PLAYORDER=
